<svg version="1.1" viewBox="0.0 0.0 512.0 512.0" fill="none" stroke="none" stroke-linecap="square" stroke-miterlimit="10" xmlns:xlink="http://www.w3.org/1999/xlink" xmlns="http://www.w3.org/2000/svg"><clipPath id="p.0"><path d="m0 0l512.0 0l0 512.0l-512.0 0l0 -512.0z" clip-rule="nonzero"/></clipPath><g clip-path="url(#p.0)"><path fill="#000000" fill-opacity="0.0" d="m0 0l512.0 0l0 512.0l-512.0 0z" fill-rule="evenodd"/><path fill="#000000" fill-opacity="0.0" d="m-787.22797 -601.29694l362.0472 -362.04724" fill-rule="evenodd"/><path stroke="#f14d67" stroke-width="24.0" stroke-linejoin="round" stroke-linecap="butt" d="m-787.22797 -601.29694l362.0472 -362.04724" fill-rule="evenodd"/><path fill="#000000" fill-opacity="0.0" d="m-745.125 -559.1939l362.04727 -362.04724" fill-rule="evenodd"/><path stroke="#f14d67" stroke-width="24.0" stroke-linejoin="round" stroke-linecap="butt" d="m-745.125 -559.1939l362.04727 -362.04724" fill-rule="evenodd"/><path fill="#000000" fill-opacity="0.0" d="m-703.022 -517.0909l362.04724 -362.04724" fill-rule="evenodd"/><path stroke="#f14d67" stroke-width="24.0" stroke-linejoin="round" stroke-linecap="butt" d="m-703.022 -517.0909l362.04724 -362.04724" fill-rule="evenodd"/><path fill="#000000" fill-opacity="0.0" d="m-660.91895 -474.98788l362.04724 -362.04727" fill-rule="evenodd"/><path stroke="#f14d67" stroke-width="24.0" stroke-linejoin="round" stroke-linecap="butt" d="m-660.91895 -474.98788l362.04724 -362.04727" fill-rule="evenodd"/><path fill="#000000" fill-opacity="0.0" d="m-618.8159 -432.8849l362.0472 -362.04724" fill-rule="evenodd"/><path stroke="#f14d67" stroke-width="24.0" stroke-linejoin="round" stroke-linecap="butt" d="m-618.8159 -432.8849l362.0472 -362.04724" fill-rule="evenodd"/><path fill="#000000" fill-opacity="0.0" d="m119.02493 127.83742l0 0c0 -4.3103714 3.4942398 -7.804611 7.804611 -7.804611l256.0443 0c2.0699158 0 4.0550537 0.82227325 5.5186768 2.2859192c1.4636536 1.4636459 2.2859192 3.4487762 2.2859192 5.518692l0 256.0443c0 4.310364 -3.4942322 7.804596 -7.804596 7.804596l-256.0443 0c-4.3103714 0 -7.804611 -3.4942322 -7.804611 -7.804596z" fill-rule="evenodd"/><path stroke="#0798fa" stroke-width="24.0" stroke-linejoin="round" stroke-linecap="butt" d="m119.02493 127.83742l0 0c0 -4.3103714 3.4942398 -7.804611 7.804611 -7.804611l256.0443 0c2.0699158 0 4.0550537 0.82227325 5.5186768 2.2859192c1.4636536 1.4636459 2.2859192 3.4487762 2.2859192 5.518692l0 256.0443c0 4.310364 -3.4942322 7.804596 -7.804596 7.804596l-256.0443 0c-4.3103714 0 -7.804611 -3.4942322 -7.804611 -7.804596z" fill-rule="evenodd"/><path fill="#000000" fill-opacity="0.0" d="m119.03018 223.26903l103.81102 -103.81102" fill-rule="evenodd"/><path stroke="#0798fa" stroke-width="24.0" stroke-linejoin="round" stroke-linecap="butt" d="m119.03018 223.26903l103.81102 -103.81102" fill-rule="evenodd"/><path fill="#000000" fill-opacity="0.0" d="m120.8832 305.62335l183.18109 -183.18109" fill-rule="evenodd"/><path stroke="#0798fa" stroke-width="24.0" stroke-linejoin="round" stroke-linecap="butt" d="m120.8832 305.62335l183.18109 -183.18109" fill-rule="evenodd"/><path fill="#000000" fill-opacity="0.0" d="m125.87533 384.8386l263.30707 -263.3071" fill-rule="evenodd"/><path stroke="#0798fa" stroke-width="24.0" stroke-linejoin="round" stroke-linecap="butt" d="m125.87533 384.8386l263.30707 -263.3071" fill-rule="evenodd"/><path fill="#000000" fill-opacity="0.0" d="m203.47638 391.43964l188.94489 -188.94489" fill-rule="evenodd"/><path stroke="#0798fa" stroke-width="24.0" stroke-linejoin="round" stroke-linecap="butt" d="m203.47638 391.43964l188.94489 -188.94489" fill-rule="evenodd"/><path fill="#000000" fill-opacity="0.0" d="m286.58136 392.542l106.39371 -106.39371" fill-rule="evenodd"/><path stroke="#0798fa" stroke-width="24.0" stroke-linejoin="round" stroke-linecap="butt" d="m286.58136 392.542l106.39371 -106.39371" fill-rule="evenodd"/><path fill="#000000" fill-opacity="0.0" d="m-89.055115 -203.33333l157.05511 -271.65356l157.05511 271.65356z" fill-rule="evenodd"/><path stroke="#0798fa" stroke-width="24.0" stroke-linejoin="round" stroke-linecap="butt" d="m-89.055115 -203.33333l157.05511 -271.65356l157.05511 271.65356z" fill-rule="evenodd"/><path fill="#000000" fill-opacity="0.0" d="m-46.540348 -276.82712l141.88976 -141.88974" fill-rule="evenodd"/><path stroke="#0798fa" stroke-width="24.0" stroke-linejoin="round" stroke-linecap="butt" d="m-46.540348 -276.82712l141.88976 -141.88974" fill-rule="evenodd"/><path fill="#000000" fill-opacity="0.0" d="m-38.774277 -200.38583l170.51968 -170.51968" fill-rule="evenodd"/><path stroke="#0798fa" stroke-width="24.0" stroke-linejoin="round" stroke-linecap="butt" d="m-38.774277 -200.38583l170.51968 -170.51968" fill-rule="evenodd"/><path fill="#000000" fill-opacity="0.0" d="m48.72966 -203.68504l112.12598 -112.12599" fill-rule="evenodd"/><path stroke="#0798fa" stroke-width="24.0" stroke-linejoin="round" stroke-linecap="butt" d="m48.72966 -203.68504l112.12598 -112.12599" fill-rule="evenodd"/><path fill="#000000" fill-opacity="0.0" d="m133.51968 -204.27034l59.527557 -59.527573" fill-rule="evenodd"/><path stroke="#0798fa" stroke-width="24.0" stroke-linejoin="round" stroke-linecap="butt" d="m133.51968 -204.27034l59.527557 -59.527573" fill-rule="evenodd"/><path fill="#000000" fill-opacity="0.0" d="m-1054.9028 -16.005249l0 0c0 -88.86131 72.036255 -160.89764 160.89758 -160.89764l0 0c42.67273 0 83.59766 16.951675 113.77179 47.12584c30.174194 30.174156 47.125854 71.0991 47.125854 113.771805l0 0c0 88.86131 -72.036316 160.89764 -160.89764 160.89764l0 0c-88.86133 0 -160.89758 -72.03633 -160.89758 -160.89764z" fill-rule="evenodd"/><path stroke="#98cc2d" stroke-width="24.0" stroke-linejoin="round" stroke-linecap="butt" d="m-1054.9028 -16.005249l0 0c0 -88.86131 72.036255 -160.89764 160.89758 -160.89764l0 0c42.67273 0 83.59766 16.951675 113.77179 47.12584c30.174194 30.174156 47.125854 71.0991 47.125854 113.771805l0 0c0 88.86131 -72.036316 160.89764 -160.89764 160.89764l0 0c-88.86133 0 -160.89758 -72.03633 -160.89758 -160.89764z" fill-rule="evenodd"/><path fill="#000000" fill-opacity="0.0" d="m-1054.2467 -24.178478l152.66138 -152.6614" fill-rule="evenodd"/><path stroke="#98cc2d" stroke-width="24.0" stroke-linejoin="round" stroke-linecap="butt" d="m-1054.2467 -24.178478l152.66138 -152.6614" fill-rule="evenodd"/><path fill="#000000" fill-opacity="0.0" d="m-1042.9186 48.70341l217.0708 -217.07086" fill-rule="evenodd"/><path stroke="#98cc2d" stroke-width="24.0" stroke-linejoin="round" stroke-linecap="butt" d="m-1042.9186 48.70341l217.0708 -217.07086" fill-rule="evenodd"/><path fill="#000000" fill-opacity="0.0" d="m-1007.77704 97.76656l227.55902 -227.55905" fill-rule="evenodd"/><path stroke="#98cc2d" stroke-width="24.0" stroke-linejoin="round" stroke-linecap="butt" d="m-1007.77704 97.76656l227.55902 -227.55905" fill-rule="evenodd"/><path fill="#000000" fill-opacity="0.0" d="m-958.18634 132.38058l214.48816 -214.48819" fill-rule="evenodd"/><path stroke="#98cc2d" stroke-width="24.0" stroke-linejoin="round" stroke-linecap="butt" d="m-958.18634 132.38058l214.48816 -214.48819" fill-rule="evenodd"/><path fill="#000000" fill-opacity="0.0" d="m-883.33594 141.73228l148.37793 -148.37796" fill-rule="evenodd"/><path stroke="#98cc2d" stroke-width="24.0" stroke-linejoin="round" stroke-linecap="butt" d="m-883.33594 141.73228l148.37793 -148.37796" fill-rule="evenodd"/></g></svg>