<svg version="1.1" viewBox="0.0 0.0 512.0 512.0" fill="none" stroke="none" stroke-linecap="square" stroke-miterlimit="10" xmlns:xlink="http://www.w3.org/1999/xlink" xmlns="http://www.w3.org/2000/svg"><clipPath id="p.0"><path d="m0 0l512.0 0l0 512.0l-512.0 0l0 -512.0z" clip-rule="nonzero"/></clipPath><g clip-path="url(#p.0)"><path fill="#000000" fill-opacity="0.0" d="m0 0l512.0 0l0 512.0l-512.0 0z" fill-rule="evenodd"/><path fill="#000000" fill-opacity="0.0" d="m95.097115 255.99475l0 0c0 -88.86131 72.03632 -160.89764 160.89764 -160.89764l0 0c42.6727 0 83.59766 16.951668 113.77182 47.12583c30.174164 30.174149 47.125824 71.09909 47.125824 113.771805l0 0c0 88.8613 -72.03635 160.89764 -160.89764 160.89764l0 0c-88.86131 0 -160.89764 -72.03635 -160.89764 -160.89764z" fill-rule="evenodd"/><path stroke="#0798fa" stroke-width="24.0" stroke-linejoin="round" stroke-linecap="butt" d="m95.097115 255.99475l0 0c0 -88.86131 72.03632 -160.89764 160.89764 -160.89764l0 0c42.6727 0 83.59766 16.951668 113.77182 47.12583c30.174164 30.174149 47.125824 71.09909 47.125824 113.771805l0 0c0 88.8613 -72.03635 160.89764 -160.89764 160.89764l0 0c-88.86131 0 -160.89764 -72.03635 -160.89764 -160.89764z" fill-rule="evenodd"/><path fill="#98cc2d" d="m-657.82416 49.98046l0 0c0 -4.3103676 3.4942627 -7.8046074 7.8046265 -7.8046074l256.0443 0c2.0699158 0 4.0550537 0.82226944 5.5187073 2.2859154c1.4636536 1.4636459 2.2859192 3.44878 2.2859192 5.518692l0 256.0443c0 4.310364 -3.4942627 7.8046265 -7.8046265 7.8046265l-256.0443 0c-4.310364 0 -7.8046265 -3.4942627 -7.8046265 -7.8046265z" fill-rule="evenodd"/><path stroke="#98cc2d" stroke-width="24.0" stroke-linejoin="round" stroke-linecap="butt" d="m-657.82416 49.98046l0 0c0 -4.3103676 3.4942627 -7.8046074 7.8046265 -7.8046074l256.0443 0c2.0699158 0 4.0550537 0.82226944 5.5187073 2.2859154c1.4636536 1.4636459 2.2859192 3.44878 2.2859192 5.518692l0 256.0443c0 4.310364 -3.4942627 7.8046265 -7.8046265 7.8046265l-256.0443 0c-4.310364 0 -7.8046265 -3.4942627 -7.8046265 -7.8046265z" fill-rule="evenodd"/></g></svg>