<svg version="1.1" viewBox="0.0 0.0 512.0 512.0" fill="none" stroke="none" stroke-linecap="square" stroke-miterlimit="10" xmlns:xlink="http://www.w3.org/1999/xlink" xmlns="http://www.w3.org/2000/svg"><clipPath id="p.0"><path d="m0 0l512.0 0l0 512.0l-512.0 0l0 -512.0z" clip-rule="nonzero"/></clipPath><g clip-path="url(#p.0)"><path fill="#000000" fill-opacity="0.0" d="m0 0l512.0 0l0 512.0l-512.0 0z" fill-rule="evenodd"/><path fill="#0798fa" d="m120.17585 127.98046l0 0c0 -4.310364 3.4942474 -7.804611 7.804611 -7.804611l256.0443 0c2.0699158 0 4.0550537 0.82227325 5.5187073 2.2859192c1.4636536 1.4636459 2.2859192 3.4487762 2.2859192 5.518692l0 256.0443c0 4.310364 -3.4942627 7.8046265 -7.8046265 7.8046265l-256.0443 0c-4.310364 0 -7.804611 -3.4942627 -7.804611 -7.8046265z" fill-rule="evenodd"/><path stroke="#0798fa" stroke-width="24.0" stroke-linejoin="round" stroke-linecap="butt" d="m120.17585 127.98046l0 0c0 -4.310364 3.4942474 -7.804611 7.804611 -7.804611l256.0443 0c2.0699158 0 4.0550537 0.82227325 5.5187073 2.2859192c1.4636536 1.4636459 2.2859192 3.4487762 2.2859192 5.518692l0 256.0443c0 4.310364 -3.4942627 7.8046265 -7.8046265 7.8046265l-256.0443 0c-4.310364 0 -7.804611 -3.4942627 -7.804611 -7.8046265z" fill-rule="evenodd"/><path fill="#0798fa" d="m-374.6509 56.037918l0 0c0 -7.349949 5.958313 -13.308258 13.308258 -13.308258l303.77716 0c3.5295677 0 6.9145775 1.4021149 9.410358 3.8978958c2.4957848 2.4957848 3.8978996 5.8807907 3.8978996 9.410362l0 303.77716c0 7.349945 -5.958309 13.308258 -13.308258 13.308258l-303.77716 0c-7.349945 0 -13.308258 -5.958313 -13.308258 -13.308258z" fill-rule="evenodd"/></g></svg>