<svg version="1.1" viewBox="0.0 0.0 512.0 512.0" fill="none" stroke="none" stroke-linecap="square" stroke-miterlimit="10" xmlns:xlink="http://www.w3.org/1999/xlink" xmlns="http://www.w3.org/2000/svg"><clipPath id="p.0"><path d="m0 0l512.0 0l0 512.0l-512.0 0l0 -512.0z" clip-rule="nonzero"/></clipPath><g clip-path="url(#p.0)"><path fill="#000000" fill-opacity="0.0" d="m0 0l512.0 0l0 512.0l-512.0 0z" fill-rule="evenodd"/><path fill="#000000" fill-opacity="0.0" d="m-787.22797 -601.29694l362.0472 -362.04724" fill-rule="evenodd"/><path stroke="#f14d67" stroke-width="24.0" stroke-linejoin="round" stroke-linecap="butt" d="m-787.22797 -601.29694l362.0472 -362.04724" fill-rule="evenodd"/><path fill="#000000" fill-opacity="0.0" d="m-745.125 -559.1939l362.04727 -362.04724" fill-rule="evenodd"/><path stroke="#f14d67" stroke-width="24.0" stroke-linejoin="round" stroke-linecap="butt" d="m-745.125 -559.1939l362.04727 -362.04724" fill-rule="evenodd"/><path fill="#000000" fill-opacity="0.0" d="m-703.022 -517.0909l362.04724 -362.04724" fill-rule="evenodd"/><path stroke="#f14d67" stroke-width="24.0" stroke-linejoin="round" stroke-linecap="butt" d="m-703.022 -517.0909l362.04724 -362.04724" fill-rule="evenodd"/><path fill="#000000" fill-opacity="0.0" d="m-660.91895 -474.98788l362.04724 -362.04727" fill-rule="evenodd"/><path stroke="#f14d67" stroke-width="24.0" stroke-linejoin="round" stroke-linecap="butt" d="m-660.91895 -474.98788l362.04724 -362.04727" fill-rule="evenodd"/><path fill="#000000" fill-opacity="0.0" d="m-618.8159 -432.8849l362.0472 -362.04724" fill-rule="evenodd"/><path stroke="#f14d67" stroke-width="24.0" stroke-linejoin="round" stroke-linecap="butt" d="m-618.8159 -432.8849l362.0472 -362.04724" fill-rule="evenodd"/><path fill="#000000" fill-opacity="0.0" d="m-519.82416 143.98045l0 0c0 -4.310364 3.4942627 -7.804596 7.8046265 -7.804596l256.0443 0c2.0699005 0 4.0550385 0.8222656 5.518692 2.2859192c1.4636383 1.4636383 2.285904 3.4487762 2.285904 5.5186768l0 256.0443c0 4.310364 -3.4942322 7.8046265 -7.804596 7.8046265l-256.0443 0c-4.310364 0 -7.8046265 -3.4942627 -7.8046265 -7.8046265z" fill-rule="evenodd"/><path stroke="#98cc2d" stroke-width="24.0" stroke-linejoin="round" stroke-linecap="butt" d="m-519.82416 143.98045l0 0c0 -4.310364 3.4942627 -7.804596 7.8046265 -7.804596l256.0443 0c2.0699005 0 4.0550385 0.8222656 5.518692 2.2859192c1.4636383 1.4636383 2.285904 3.4487762 2.285904 5.5186768l0 256.0443c0 4.310364 -3.4942322 7.8046265 -7.804596 7.8046265l-256.0443 0c-4.310364 0 -7.8046265 -3.4942627 -7.8046265 -7.8046265z" fill-rule="evenodd"/><path fill="#000000" fill-opacity="0.0" d="m-519.8189 239.41208l103.811035 -103.811035" fill-rule="evenodd"/><path stroke="#98cc2d" stroke-width="24.0" stroke-linejoin="round" stroke-linecap="butt" d="m-519.8189 239.41208l103.811035 -103.811035" fill-rule="evenodd"/><path fill="#000000" fill-opacity="0.0" d="m-517.9659 321.76642l183.18109 -183.18112" fill-rule="evenodd"/><path stroke="#98cc2d" stroke-width="24.0" stroke-linejoin="round" stroke-linecap="butt" d="m-517.9659 321.76642l183.18109 -183.18112" fill-rule="evenodd"/><path fill="#000000" fill-opacity="0.0" d="m-512.97375 400.98163l263.30707 -263.30707" fill-rule="evenodd"/><path stroke="#98cc2d" stroke-width="24.0" stroke-linejoin="round" stroke-linecap="butt" d="m-512.97375 400.98163l263.30707 -263.30707" fill-rule="evenodd"/><path fill="#000000" fill-opacity="0.0" d="m-435.3727 407.58267l188.94489 -188.94487" fill-rule="evenodd"/><path stroke="#98cc2d" stroke-width="24.0" stroke-linejoin="round" stroke-linecap="butt" d="m-435.3727 407.58267l188.94489 -188.94487" fill-rule="evenodd"/><path fill="#000000" fill-opacity="0.0" d="m-352.26773 408.68503l106.39372 -106.39368" fill-rule="evenodd"/><path stroke="#98cc2d" stroke-width="24.0" stroke-linejoin="round" stroke-linecap="butt" d="m-352.26773 408.68503l106.39372 -106.39368" fill-rule="evenodd"/><path fill="#000000" fill-opacity="0.0" d="m98.944885 391.82678l157.05511 -271.65356l157.05511 271.65356z" fill-rule="evenodd"/><path stroke="#f14d67" stroke-width="24.0" stroke-linejoin="round" stroke-linecap="butt" d="m98.944885 391.82678l157.05511 -271.65356l157.05511 271.65356z" fill-rule="evenodd"/><path fill="#000000" fill-opacity="0.0" d="m141.45966 318.333l141.88977 -141.88977" fill-rule="evenodd"/><path stroke="#f14d67" stroke-width="24.0" stroke-linejoin="round" stroke-linecap="butt" d="m141.45966 318.333l141.88977 -141.88977" fill-rule="evenodd"/><path fill="#000000" fill-opacity="0.0" d="m149.22572 394.7743l170.51967 -170.5197" fill-rule="evenodd"/><path stroke="#f14d67" stroke-width="24.0" stroke-linejoin="round" stroke-linecap="butt" d="m149.22572 394.7743l170.51967 -170.5197" fill-rule="evenodd"/><path fill="#000000" fill-opacity="0.0" d="m236.72966 391.47507l112.12599 -112.12598" fill-rule="evenodd"/><path stroke="#f14d67" stroke-width="24.0" stroke-linejoin="round" stroke-linecap="butt" d="m236.72966 391.47507l112.12599 -112.12598" fill-rule="evenodd"/><path fill="#000000" fill-opacity="0.0" d="m321.51968 390.88977l59.527557 -59.527557" fill-rule="evenodd"/><path stroke="#f14d67" stroke-width="24.0" stroke-linejoin="round" stroke-linecap="butt" d="m321.51968 390.88977l59.527557 -59.527557" fill-rule="evenodd"/><path fill="#000000" fill-opacity="0.0" d="m-1054.9028 -16.005249l0 0c0 -88.86131 72.036255 -160.89764 160.89758 -160.89764l0 0c42.67273 0 83.59766 16.951675 113.77179 47.12584c30.174194 30.174156 47.125854 71.0991 47.125854 113.771805l0 0c0 88.86131 -72.036316 160.89764 -160.89764 160.89764l0 0c-88.86133 0 -160.89758 -72.03633 -160.89758 -160.89764z" fill-rule="evenodd"/><path stroke="#98cc2d" stroke-width="24.0" stroke-linejoin="round" stroke-linecap="butt" d="m-1054.9028 -16.005249l0 0c0 -88.86131 72.036255 -160.89764 160.89758 -160.89764l0 0c42.67273 0 83.59766 16.951675 113.77179 47.12584c30.174194 30.174156 47.125854 71.0991 47.125854 113.771805l0 0c0 88.86131 -72.036316 160.89764 -160.89764 160.89764l0 0c-88.86133 0 -160.89758 -72.03633 -160.89758 -160.89764z" fill-rule="evenodd"/><path fill="#000000" fill-opacity="0.0" d="m-1054.2467 -24.178478l152.66138 -152.6614" fill-rule="evenodd"/><path stroke="#98cc2d" stroke-width="24.0" stroke-linejoin="round" stroke-linecap="butt" d="m-1054.2467 -24.178478l152.66138 -152.6614" fill-rule="evenodd"/><path fill="#000000" fill-opacity="0.0" d="m-1042.9186 48.70341l217.0708 -217.07086" fill-rule="evenodd"/><path stroke="#98cc2d" stroke-width="24.0" stroke-linejoin="round" stroke-linecap="butt" d="m-1042.9186 48.70341l217.0708 -217.07086" fill-rule="evenodd"/><path fill="#000000" fill-opacity="0.0" d="m-1007.77704 97.76656l227.55902 -227.55905" fill-rule="evenodd"/><path stroke="#98cc2d" stroke-width="24.0" stroke-linejoin="round" stroke-linecap="butt" d="m-1007.77704 97.76656l227.55902 -227.55905" fill-rule="evenodd"/><path fill="#000000" fill-opacity="0.0" d="m-958.18634 132.38058l214.48816 -214.48819" fill-rule="evenodd"/><path stroke="#98cc2d" stroke-width="24.0" stroke-linejoin="round" stroke-linecap="butt" d="m-958.18634 132.38058l214.48816 -214.48819" fill-rule="evenodd"/><path fill="#000000" fill-opacity="0.0" d="m-883.33594 141.73228l148.37793 -148.37796" fill-rule="evenodd"/><path stroke="#98cc2d" stroke-width="24.0" stroke-linejoin="round" stroke-linecap="butt" d="m-883.33594 141.73228l148.37793 -148.37796" fill-rule="evenodd"/></g></svg>