<svg version="1.1" viewBox="0.0 0.0 512.0 512.0" fill="none" stroke="none" stroke-linecap="square" stroke-miterlimit="10" xmlns:xlink="http://www.w3.org/1999/xlink" xmlns="http://www.w3.org/2000/svg"><clipPath id="p.0"><path d="m0 0l512.0 0l0 512.0l-512.0 0l0 -512.0z" clip-rule="nonzero"/></clipPath><g clip-path="url(#p.0)"><path fill="#000000" fill-opacity="0.0" d="m0 0l512.0 0l0 512.0l-512.0 0z" fill-rule="evenodd"/><path fill="#000000" fill-opacity="0.0" d="m-787.22797 -601.29694l362.0472 -362.04724" fill-rule="evenodd"/><path stroke="#f14d67" stroke-width="24.0" stroke-linejoin="round" stroke-linecap="butt" d="m-787.22797 -601.29694l362.0472 -362.04724" fill-rule="evenodd"/><path fill="#000000" fill-opacity="0.0" d="m-745.125 -559.1939l362.04727 -362.04724" fill-rule="evenodd"/><path stroke="#f14d67" stroke-width="24.0" stroke-linejoin="round" stroke-linecap="butt" d="m-745.125 -559.1939l362.04727 -362.04724" fill-rule="evenodd"/><path fill="#000000" fill-opacity="0.0" d="m-703.022 -517.0909l362.04724 -362.04724" fill-rule="evenodd"/><path stroke="#f14d67" stroke-width="24.0" stroke-linejoin="round" stroke-linecap="butt" d="m-703.022 -517.0909l362.04724 -362.04724" fill-rule="evenodd"/><path fill="#000000" fill-opacity="0.0" d="m-660.91895 -474.98788l362.04724 -362.04727" fill-rule="evenodd"/><path stroke="#f14d67" stroke-width="24.0" stroke-linejoin="round" stroke-linecap="butt" d="m-660.91895 -474.98788l362.04724 -362.04727" fill-rule="evenodd"/><path fill="#000000" fill-opacity="0.0" d="m-618.8159 -432.8849l362.0472 -362.04724" fill-rule="evenodd"/><path stroke="#f14d67" stroke-width="24.0" stroke-linejoin="round" stroke-linecap="butt" d="m-618.8159 -432.8849l362.0472 -362.04724" fill-rule="evenodd"/><path fill="#000000" fill-opacity="0.0" d="m467.02493 -465.85025l0 0c0 -4.310364 3.4942322 -7.804596 7.804596 -7.804596l256.04437 0c2.0698853 0 4.0549927 0.8222656 5.5186768 2.2859192c1.463623 1.463623 2.2858887 3.448761 2.2858887 5.5186768l0 256.0443c0 4.310364 -3.4942017 7.804611 -7.8045654 7.804611l-256.04437 0c-4.310364 0 -7.804596 -3.4942474 -7.804596 -7.804611z" fill-rule="evenodd"/><path stroke="#0798fa" stroke-width="24.0" stroke-linejoin="round" stroke-linecap="butt" d="m467.02493 -465.85025l0 0c0 -4.310364 3.4942322 -7.804596 7.804596 -7.804596l256.04437 0c2.0698853 0 4.0549927 0.8222656 5.5186768 2.2859192c1.463623 1.463623 2.2858887 3.448761 2.2858887 5.5186768l0 256.0443c0 4.310364 -3.4942017 7.804611 -7.8045654 7.804611l-256.04437 0c-4.310364 0 -7.804596 -3.4942474 -7.804596 -7.804611z" fill-rule="evenodd"/><path fill="#000000" fill-opacity="0.0" d="m467.03018 -370.41864l103.811005 -103.811005" fill-rule="evenodd"/><path stroke="#0798fa" stroke-width="24.0" stroke-linejoin="round" stroke-linecap="butt" d="m467.03018 -370.41864l103.811005 -103.811005" fill-rule="evenodd"/><path fill="#000000" fill-opacity="0.0" d="m468.8832 -288.0643l183.18112 -183.18109" fill-rule="evenodd"/><path stroke="#0798fa" stroke-width="24.0" stroke-linejoin="round" stroke-linecap="butt" d="m468.8832 -288.0643l183.18112 -183.18109" fill-rule="evenodd"/><path fill="#000000" fill-opacity="0.0" d="m473.87534 -208.84908l263.3071 -263.30707" fill-rule="evenodd"/><path stroke="#0798fa" stroke-width="24.0" stroke-linejoin="round" stroke-linecap="butt" d="m473.87534 -208.84908l263.3071 -263.30707" fill-rule="evenodd"/><path fill="#000000" fill-opacity="0.0" d="m551.4764 -202.24803l188.94489 -188.94487" fill-rule="evenodd"/><path stroke="#0798fa" stroke-width="24.0" stroke-linejoin="round" stroke-linecap="butt" d="m551.4764 -202.24803l188.94489 -188.94487" fill-rule="evenodd"/><path fill="#000000" fill-opacity="0.0" d="m634.58136 -201.14568l106.39368 -106.39369" fill-rule="evenodd"/><path stroke="#0798fa" stroke-width="24.0" stroke-linejoin="round" stroke-linecap="butt" d="m634.58136 -201.14568l106.39368 -106.39369" fill-rule="evenodd"/><path fill="#000000" fill-opacity="0.0" d="m-89.055115 -203.33333l157.05511 -271.65356l157.05511 271.65356z" fill-rule="evenodd"/><path stroke="#0798fa" stroke-width="24.0" stroke-linejoin="round" stroke-linecap="butt" d="m-89.055115 -203.33333l157.05511 -271.65356l157.05511 271.65356z" fill-rule="evenodd"/><path fill="#000000" fill-opacity="0.0" d="m-46.540348 -276.82712l141.88976 -141.88974" fill-rule="evenodd"/><path stroke="#0798fa" stroke-width="24.0" stroke-linejoin="round" stroke-linecap="butt" d="m-46.540348 -276.82712l141.88976 -141.88974" fill-rule="evenodd"/><path fill="#000000" fill-opacity="0.0" d="m-38.774277 -200.38583l170.51968 -170.51968" fill-rule="evenodd"/><path stroke="#0798fa" stroke-width="24.0" stroke-linejoin="round" stroke-linecap="butt" d="m-38.774277 -200.38583l170.51968 -170.51968" fill-rule="evenodd"/><path fill="#000000" fill-opacity="0.0" d="m48.72966 -203.68504l112.12598 -112.12599" fill-rule="evenodd"/><path stroke="#0798fa" stroke-width="24.0" stroke-linejoin="round" stroke-linecap="butt" d="m48.72966 -203.68504l112.12598 -112.12599" fill-rule="evenodd"/><path fill="#000000" fill-opacity="0.0" d="m133.51968 -204.27034l59.527557 -59.527573" fill-rule="evenodd"/><path stroke="#0798fa" stroke-width="24.0" stroke-linejoin="round" stroke-linecap="butt" d="m133.51968 -204.27034l59.527557 -59.527573" fill-rule="evenodd"/><path fill="#000000" fill-opacity="0.0" d="m95.10236 256.0l0 0c0 -88.86131 72.03632 -160.89764 160.89764 -160.89764l0 0c42.6727 0 83.59766 16.951668 113.77182 47.12583c30.174164 30.174149 47.125824 71.09909 47.125824 113.771805l0 0c0 88.8613 -72.03635 160.89764 -160.89764 160.89764l0 0c-88.86131 0 -160.89764 -72.03635 -160.89764 -160.89764z" fill-rule="evenodd"/><path stroke="#f14d67" stroke-width="24.0" stroke-linejoin="round" stroke-linecap="butt" d="m95.10236 256.0l0 0c0 -88.86131 72.03632 -160.89764 160.89764 -160.89764l0 0c42.6727 0 83.59766 16.951668 113.77182 47.12583c30.174164 30.174149 47.125824 71.09909 47.125824 113.771805l0 0c0 88.8613 -72.03635 160.89764 -160.89764 160.89764l0 0c-88.86131 0 -160.89764 -72.03635 -160.89764 -160.89764z" fill-rule="evenodd"/><path fill="#000000" fill-opacity="0.0" d="m95.75853 247.82677l152.66142 -152.6614" fill-rule="evenodd"/><path stroke="#f14d67" stroke-width="24.0" stroke-linejoin="round" stroke-linecap="butt" d="m95.75853 247.82677l152.66142 -152.6614" fill-rule="evenodd"/><path fill="#000000" fill-opacity="0.0" d="m107.08662 320.70865l217.07086 -217.07086" fill-rule="evenodd"/><path stroke="#f14d67" stroke-width="24.0" stroke-linejoin="round" stroke-linecap="butt" d="m107.08662 320.70865l217.07086 -217.07086" fill-rule="evenodd"/><path fill="#000000" fill-opacity="0.0" d="m142.2282 369.77182l227.55904 -227.55907" fill-rule="evenodd"/><path stroke="#f14d67" stroke-width="24.0" stroke-linejoin="round" stroke-linecap="butt" d="m142.2282 369.77182l227.55904 -227.55907" fill-rule="evenodd"/><path fill="#000000" fill-opacity="0.0" d="m191.8189 404.38583l214.4882 -214.48819" fill-rule="evenodd"/><path stroke="#f14d67" stroke-width="24.0" stroke-linejoin="round" stroke-linecap="butt" d="m191.8189 404.38583l214.4882 -214.48819" fill-rule="evenodd"/><path fill="#000000" fill-opacity="0.0" d="m266.66928 413.73752l148.37796 -148.37793" fill-rule="evenodd"/><path stroke="#f14d67" stroke-width="24.0" stroke-linejoin="round" stroke-linecap="butt" d="m266.66928 413.73752l148.37796 -148.37793" fill-rule="evenodd"/></g></svg>